<?xml version="1.0" standalone="no"?><!DOCTYPE svg PUBLIC "-//W3C//DTD SVG 1.1//EN" "http://www.w3.org/Graphics/SVG/1.1/DTD/svg11.dtd"><svg t="1560869084496" class="icon" style="" viewBox="0 0 1024 1024" version="1.1" xmlns="http://www.w3.org/2000/svg" p-id="1578" xmlns:xlink="http://www.w3.org/1999/xlink" width="32" height="32"><defs><style type="text/css"></style></defs><path d="M138.5 254.4h115.7l-74.6 500.8H63.9l74.6-500.8z m324.1 2.3h66.9L143.7 627.2l-41.2-26.9 360.1-343.6zM233.7 514.9l61.7-74.1 234.1 314.4H406L233.7 514.9z m0 0M790.6 533h46.6l73.3 133.9h1V533H960v222.2h-45.7l-74.2-133.6h-1v133.6h-48.5V533z m0 0M560.8 533h46.6l73.3 133.9h1V533h48.5v222.2h-45.7l-74.2-133.6h-1v133.6h-48.5V533z m0 0" fill="#2C6DF8" p-id="1579"></path></svg>