<?xml version="1.0" standalone="no"?><!DOCTYPE svg PUBLIC "-//W3C//DTD SVG 1.1//EN" "http://www.w3.org/Graphics/SVG/1.1/DTD/svg11.dtd"><svg t="1560311203307" class="icon" style="" viewBox="0 0 1024 1024" version="1.1" xmlns="http://www.w3.org/2000/svg" p-id="1160" xmlns:xlink="http://www.w3.org/1999/xlink" width="128" height="128"><defs><style type="text/css"></style></defs><path d="M971.749053 356.325053H880.909474a25.088 25.088 0 0 0-11.856842 3.152842l-40.96-121.909895C814.942316 168.151579 765.547789 134.736842 704.835368 134.736842h-384.808421C250.314105 134.736842 208.033684 179.658105 196.796632 237.487158l-41.06779 122.341053a25.222737 25.222737 0 0 0-12.584421-3.503158H52.250947A25.168842 25.168842 0 0 0 26.947368 381.305263v21.692632c0 13.797053 11.317895 25.007158 25.303579 25.007158l34.41179 5.820631c-10.859789 20.965053-17.057684 45.002105-17.057684 72.919579l-12.746106 143.925895c0 4.176842 0.296421 8.407579 0.808421 12.69221a44.732632 44.732632 0 0 0-0.808421 8.111158v173.16379c0 24.629895 20.210526 44.597895 45.16379 44.597895h68.931368c24.953263 0 45.136842-19.968 45.136842-44.597895v-55.673263h592.626527v55.673263c0 24.629895 20.210526 44.597895 45.163789 44.597895h68.931369c24.926316 0 45.163789-19.968 45.163789-44.597895v-173.16379c0-2.775579-0.350316-5.497263-0.835368-8.08421 0.512-4.311579 0.808421-8.542316 0.808421-12.719158l-12.719158-143.898947c0-28.025263-6.197895-52.062316-17.111579-73.108211l33.630316-5.658947a25.141895 25.141895 0 0 0 25.303579-25.007158v-21.692632a25.141895 25.141895 0 0 0-25.303579-25.007158z m-744.55579-25.626948l30.073263-79.117473 0.431158-1.886316c2.964211-15.979789 9.674105-18.836211 19.536842-31.178105h470.959158c9.970526 12.665263 16.168421 15.898947 18.917053 31.016421l30.558316 81.165473 11.183158 44.085895c-2.533053 32.256-41.768421 57.721263-74.374737 57.721263h-444.092632c-32.660211 0-71.868632-25.465263-74.401684-57.721263l11.210105-44.085895z m21.072842 376.266106c-37.780211 0-68.392421-30.261895-68.392421-67.584s30.612211-67.557053 68.392421-67.557053 68.392421 30.234947 68.392421 67.557053-30.612211 67.584-68.392421 67.584z m381.925053-49.852632a20.210526 20.210526 0 0 1-20.345263 20.102737h-191.865263a20.210526 20.210526 0 0 1-20.318316-20.102737v-56.481684a20.210526 20.210526 0 0 1 20.345263-20.07579h191.838316a20.210526 20.210526 0 0 1 20.345263 20.07579v56.481684z m146.378105 49.852632c-37.780211 0-68.419368-30.261895-68.419368-67.584s30.639158-67.557053 68.419368-67.557053c37.780211 0 68.365474 30.234947 68.365474 67.557053s-30.585263 67.584-68.365474 67.584z" p-id="1161" fill="#ffffff"></path></svg>